<svg width="413" height="739" viewBox="0 0 413 739" fill="none" xmlns="http://www.w3.org/2000/svg">
<g clip-path="url(#clip0_16_3)">
<mask id="mask0_16_3" style="mask-type:luminance" maskUnits="userSpaceOnUse" x="0" y="0" width="413" height="739">
<path d="M413 0H0V739H413V0Z" fill="white"/>
</mask>
<g mask="url(#mask0_16_3)">
<path d="M345.778 164.558C346.91 163.95 347.937 163.425 348.336 163.216C349.887 162.44 351.25 161.769 351.963 161.371C354.207 160.133 354.857 159.819 355.129 158.938C355.36 158.204 354.962 157.429 354.123 157.03C352.718 156.38 348.294 158.959 348.273 158.854C348.168 158.016 347.686 157.366 346.616 157.345C345.337 157.324 343.723 157.827 341.395 158.624C339.257 159.358 337.118 160.029 336.636 160.154C337.831 158.729 338.187 158.183 338.187 158.183C338.187 158.183 339.32 156.883 338.733 156.066C338.565 155.856 338.166 155.709 337.684 155.877C336.657 156.233 334.812 157.848 331.666 160.762C331.268 161.14 331.1 161.433 330.492 161.832C329.297 162.146 327.117 162.335 325.963 162.021C325.041 161.769 324.433 161.412 324.034 161.098C324.097 161.035 325.334 158.267 327.242 156.883C328.458 156.003 331.813 153.109 332.128 152.816C333.281 151.599 333.113 150.656 333.008 150.006C332.904 149.23 332.463 148.517 331.876 148.119C329.842 146.714 326.341 149.482 325.942 149.796C325.146 150.446 321.476 153.57 320.323 154.556C319.505 155.269 317.115 156.296 315.521 156.967L314.599 157.366C312.628 158.225 310.133 159.504 308.288 161.077C307.029 162.146 305.52 164.935 305.038 165.963C304.01 166.822 299.167 170.785 293.317 174.308C288.892 176.971 284.175 179.885 280.086 182.423C277.046 184.31 274.341 185.966 272.454 187.119C272.097 187.308 263.501 191.879 256.393 197.52C254.233 199.239 252.115 200.958 250.123 202.615C248.446 203.978 246.894 205.257 245.385 206.452C241.191 209.912 231.714 215.971 230.644 216.705C229.239 217.586 227.793 218.488 226.115 219.494C221.628 222.22 212.172 227.147 209.551 228.427C208.523 228.93 206.678 229.978 204.623 231.257C204.56 231.299 204.477 231.341 204.414 231.362L204.351 231.383C203.806 230.817 203.281 230.02 203.219 229.538C202.82 227.022 206.322 226.728 210.033 225.785C212.507 225.156 214.541 223.939 214.52 222.409C214.499 220.983 213.66 221.214 213.409 220.186C212.801 217.775 215.925 217.565 216.344 216.454C216.491 216.076 216.428 215.28 215.443 214.944C214.457 214.609 213.975 214.692 212.612 215.07C211.899 215.28 211.354 213.959 212.214 213.036C213.073 212.113 213.451 211.82 213.178 210.834C212.801 209.45 211.941 209.241 211.417 209.555C210.893 209.891 210.452 210.792 209.404 210.667C208.356 210.541 207.894 209.891 205.231 209.891C203.68 209.891 202.422 211.254 200.891 209.954C199.969 209.178 198.752 206.683 195.964 205.886C193.846 205.278 192.819 204.125 192.819 204.125C192.819 204.125 195.419 203.307 196.236 202.489C197.746 200.958 197.641 200.56 197.893 199.491C197.998 199.05 198.417 195.674 196.551 195.926C196.09 195.989 194.454 197.561 193.406 197.624C192.357 197.687 192.19 197.352 192.357 196.765C192.714 195.507 192.336 194.773 191.456 194.144C190.24 193.263 186.948 194.081 184.117 194.353C181.307 194.647 179.148 194.374 176.548 196.031C174.283 197.478 172.27 200.287 172.27 200.287C172.27 200.287 170.278 200.434 169.02 202.237C168.391 203.16 168.391 203.936 168.391 203.936C168.391 203.936 166.525 204.02 165.645 205.613C165.162 206.494 165.183 206.641 165.183 206.641C165.183 206.641 161.598 207.626 160.361 209.828C159.019 212.239 158.075 214.609 159.27 216.957C160.256 218.907 160.759 219.201 160.759 219.201C160.759 219.201 159.941 221.109 160.424 223.08C160.969 225.281 161.933 225.994 162.08 226.183C161.933 226.686 161.074 229.454 162.122 232.662C163.757 237.611 166.253 237.611 166.253 237.611C166.253 237.611 166.63 243.545 166.903 247.151C167.175 250.758 167.238 253.274 167.238 253.274C167.175 253.253 160.78 256.545 160.78 256.545C160.78 256.545 159.941 254.658 159.291 253.63C156.838 249.688 153.42 246.354 151.995 244.383C150.548 242.412 148.64 240.043 147.424 239.12C147.151 238.827 146.669 238.386 145.809 237.82C143.733 236.436 142.349 233.375 142.349 233.375L156.419 232.578L158.516 226.518L156.041 224.485L143.482 220.459C145.641 206.221 166.756 71.0819 166.756 71.0819L164.617 64.9172L164.596 64.9592V65.0011V65.0221L160.172 70.9141L132.075 220.396L116.496 225.072L116.832 231.152L118.971 232.704L119.033 232.767L124.569 232.956C124.066 233.228 123.353 233.731 123.269 234.612C123.185 235.493 123.122 237.149 123.73 237.611C124.338 238.051 124.569 238.03 124.569 238.03C124.569 238.03 123.772 239.204 124.233 240.441C124.695 241.699 125.303 242.14 125.303 242.14C125.303 242.14 124.611 242.916 125.03 244.174C125.45 245.453 125.974 245.767 125.974 245.767C125.974 245.767 125.345 247.633 126.1 248.577C126.875 249.541 128.301 249.961 128.301 249.961L127.945 253.421L126.12 253.798L125.701 258.767L127.924 259.69L136.646 260.34L137.108 255.119C137.108 255.119 136.311 254.574 136.164 254.301C136.017 254.029 136.017 253.483 136.059 253.001C136.458 252.917 137.191 252.771 137.883 252.666C138.366 252.603 138.617 252.708 138.806 253.19C139.204 254.721 139.414 258.285 139.729 261.011C140.106 264.387 140.882 267.553 141.762 270.635C141.804 270.803 143.293 274.829 145.516 276.737C144.908 277.534 144.048 278.75 143.398 279.882C140.127 285.607 141.741 290.534 143.146 293.553C143.608 294.644 144.132 295.734 144.698 296.825C143.649 300.85 141.825 308.881 141.238 311.775C140.022 317.856 140.378 324.377 141.049 329.367C141.217 331.254 141.511 333.183 141.993 334.903C142.287 336.307 142.538 337.272 142.622 337.628C142.685 339.411 143.356 357.695 145.851 369.458C150.443 390.971 159.69 409.423 169.482 428.966C181.203 452.345 193.322 476.521 198.752 508.498C202.82 532.527 194.454 567.187 194.37 567.523L194.014 568.991L196.488 569.012C196.404 569.033 196.32 569.033 196.236 569.054C196.236 569.054 238.36 569.284 277.654 569.494L340.305 569.871C340.368 569.871 340.41 569.85 340.473 569.829C342.213 569.829 343.408 569.85 343.912 569.85C343.912 569.85 331.666 538.964 335.65 529.466C337.223 525.691 352.278 525.859 349.384 520.533C346.197 514.662 317.367 479.184 306.421 458.258C306.107 457.671 279.457 404.097 259.391 380.571C252.241 372.205 234.775 346.54 229.344 335.909C226.849 332.03 228.967 331.338 230.623 330.73C232.175 330.164 239.975 326.054 240.646 324.251C241.317 322.448 239.22 318.778 239.01 316.891C238.549 312.572 243.854 310.873 246.706 313.389C250.668 316.87 256.309 322.552 264.36 324.922C271.322 326.977 288.599 329.052 300.068 326.348C305.499 325.069 310.929 321.714 312.146 320.623C314.913 318.149 315.5 315.696 313.613 313.515C313.152 312.991 306.568 316.765 303.759 314.501C299.167 310.789 303.528 307.141 303.926 306.868C307.008 304.939 311.328 305.086 316.758 302.423C322.587 299.55 325.187 296.133 325.942 295.021C328.27 291.582 328.207 290.492 328.857 289.968C329.863 289.15 333.071 290.66 333.784 288.291C334.204 286.886 334.057 284.642 332.358 282.545C330.912 280.763 329.549 280.805 328.857 278.792C327.662 275.332 331.373 271.81 332.82 270.132C334.12 268.643 334.35 267.029 333.784 266.085C333.763 266.022 333.47 264.282 323.258 260.046C317.975 257.845 307.658 253.295 296.189 250.485C285.621 247.906 274.089 246.941 266.415 247.067C254.149 247.277 246.915 249.646 246.915 249.646L243.833 243.104C243.833 243.104 255.68 231.09 257.734 227.839C259.789 224.589 260.251 223.52 260.251 223.52C260.251 223.52 268.302 217.397 271.552 215.699C274.802 214.021 284.175 208.968 288.263 204.523C292.352 200.078 300.152 191.544 303.046 188.671C305.939 185.798 309.168 183.031 310.258 182.297C311.349 181.584 313.194 179.424 314.284 178.774C316.968 177.201 321.979 176.74 325.691 174.685C329.423 172.651 333.239 171.771 334.518 171.435C337.705 170.617 346.155 168.143 350.265 166.738C353.997 165.459 355.57 165.963 355.674 164.474C355.926 161.433 347.015 164.306 345.778 164.558ZM208.314 311.418C208.775 310.643 210.117 308.063 210.348 305.841C210.599 303.45 210.515 301.479 210.348 299.676C210.18 297.873 210.054 295.399 209.949 294.476C209.572 291.142 212.36 285.208 213.199 284.537C213.681 285.565 214.541 295.483 214.499 296.95C213.975 313.851 221.251 325.488 221.251 325.488C213.514 314.899 208.481 311.859 208.314 311.418Z" fill="white"/>
</g>
<mask id="mask1_16_3" style="mask-type:luminance" maskUnits="userSpaceOnUse" x="0" y="0" width="413" height="739">
<path d="M413 0H0V739H413V0Z" fill="white"/>
</mask>
<g mask="url(#mask1_16_3)">
<path d="M63.0288 567.753V568.739V572.408H346.994V568.739V567.753H63.0288Z" fill="white"/>
</g>
<mask id="mask2_16_3" style="mask-type:luminance" maskUnits="userSpaceOnUse" x="0" y="0" width="413" height="739">
<path d="M413 0H0V739H413V0Z" fill="white"/>
</mask>
<g mask="url(#mask2_16_3)">
<path d="M63.0288 577.063V578.07V581.718H346.994V578.07V577.063H63.0288Z" fill="white"/>
</g>
<mask id="mask3_16_3" style="mask-type:luminance" maskUnits="userSpaceOnUse" x="0" y="0" width="413" height="739">
<path d="M413 0H0V739H413V0Z" fill="white"/>
</mask>
<g mask="url(#mask3_16_3)">
<path d="M63.0288 586.373V587.38V591.028H346.994V587.38V586.373H63.0288Z" fill="white"/>
</g>
<mask id="mask4_16_3" style="mask-type:luminance" maskUnits="userSpaceOnUse" x="0" y="0" width="413" height="739">
<path d="M413 0H0V739H413V0Z" fill="white"/>
</mask>
<g mask="url(#mask4_16_3)">
<path d="M345.778 164.558C346.931 163.95 347.937 163.425 348.336 163.216C349.887 162.44 351.25 161.769 351.963 161.371C354.207 160.133 354.857 159.819 355.129 158.917C355.36 158.183 354.962 157.408 354.123 157.03C352.718 156.38 348.294 158.959 348.273 158.854C348.168 158.016 347.686 157.366 346.616 157.345C345.337 157.324 343.723 157.806 341.396 158.603C339.257 159.337 337.118 160.008 336.636 160.133C337.831 158.708 338.187 158.162 338.187 158.162C338.187 158.162 339.32 156.862 338.733 156.045C338.565 155.814 338.166 155.688 337.684 155.856C336.657 156.212 334.812 157.827 331.666 160.742C331.268 161.098 331.1 161.413 330.492 161.811C329.297 162.125 327.117 162.314 325.963 162C325.041 161.748 324.433 161.392 324.034 161.077C324.097 161.014 325.334 158.246 327.242 156.862C328.458 155.982 331.813 153.088 332.128 152.795C333.281 151.578 333.113 150.635 333.008 149.985C332.904 149.209 332.463 148.517 331.876 148.098C329.842 146.693 326.341 149.461 325.942 149.775C325.146 150.425 321.476 153.549 320.323 154.535C319.484 155.248 317.115 156.275 315.521 156.946L314.599 157.345C312.628 158.204 310.133 159.483 308.309 161.056C307.05 162.125 305.541 164.893 305.059 165.942C304.031 166.801 299.188 170.764 293.338 174.287C288.913 176.95 284.196 179.864 280.107 182.402C277.067 184.289 274.362 185.945 272.475 187.098C272.118 187.287 263.522 191.858 256.414 197.499C254.254 199.218 252.136 200.937 250.144 202.594C248.467 203.957 246.915 205.236 245.406 206.431C241.212 209.87 231.735 215.951 230.665 216.684C229.26 217.565 227.814 218.467 226.136 219.473C221.649 222.199 212.193 227.127 209.572 228.406C208.544 228.909 206.699 229.957 204.644 231.236C204.582 231.278 204.498 231.32 204.435 231.341L204.393 231.362C203.848 230.796 203.323 229.999 203.261 229.517C202.862 227.001 206.364 226.707 210.075 225.764C212.549 225.135 214.583 223.918 214.562 222.388C214.541 220.962 213.702 221.193 213.451 220.165C212.843 217.754 215.967 217.544 216.386 216.433C216.533 216.055 216.47 215.259 215.485 214.923C214.499 214.588 214.017 214.651 212.654 215.049C211.941 215.259 211.396 213.938 212.256 213.015C213.115 212.092 213.493 211.799 213.22 210.813C212.822 209.43 211.983 209.22 211.459 209.534C210.935 209.87 210.494 210.771 209.446 210.646C208.398 210.52 207.936 209.87 205.273 209.87C203.722 209.87 202.464 211.233 200.954 209.933C200.032 209.157 198.815 206.662 196.027 205.865C193.909 205.257 192.882 204.104 192.882 204.104C192.882 204.104 195.482 203.286 196.299 202.468C197.809 200.937 197.704 200.539 197.956 199.47C198.061 199.029 198.48 195.653 196.614 195.905C196.153 195.968 194.517 197.541 193.469 197.603C192.42 197.666 192.253 197.331 192.42 196.744C192.777 195.486 192.399 194.752 191.519 194.123C190.303 193.242 187.011 194.06 184.18 194.332C181.37 194.626 179.211 194.353 176.611 196.01C174.346 197.457 172.333 200.266 172.333 200.266C172.333 200.266 170.341 200.392 169.083 202.216C168.454 203.139 168.454 203.915 168.454 203.915C168.454 203.915 166.588 203.999 165.707 205.592C165.225 206.473 165.246 206.62 165.246 206.62C165.246 206.62 161.661 207.605 160.424 209.807C159.082 212.218 158.138 214.567 159.333 216.936C160.319 218.886 160.822 219.18 160.822 219.18C160.822 219.18 160.004 221.088 160.487 223.038C161.032 225.239 161.996 225.952 162.143 226.141C161.996 226.644 161.137 229.412 162.185 232.62C163.82 237.59 166.316 237.569 166.316 237.569C166.316 237.569 166.693 243.503 166.966 247.109C167.238 250.695 167.301 253.232 167.301 253.232C167.238 253.211 160.843 256.503 160.843 256.503C160.843 256.503 160.004 254.616 159.354 253.588C156.901 249.646 153.483 246.312 152.058 244.341C150.611 242.37 148.703 240.001 147.487 239.078C147.214 238.785 146.732 238.345 145.872 237.778C143.796 236.394 142.433 233.333 142.433 233.333L156.503 232.536L158.599 226.477L156.125 224.443L143.566 220.417C145.725 206.179 166.84 71.04 166.84 71.04L164.701 64.8754L164.68 64.9173L164.596 65.0012V65.0221L160.172 70.9142L132.096 220.396L116.517 225.072L116.853 231.152L118.971 232.704L119.033 232.767L124.569 232.956C124.066 233.228 123.353 233.732 123.269 234.612C123.185 235.493 123.101 237.149 123.73 237.611C124.359 238.072 124.59 238.03 124.59 238.03C124.59 238.03 123.793 239.204 124.233 240.441C124.674 241.678 125.303 242.14 125.303 242.14C125.303 242.14 124.611 242.916 125.03 244.174C125.45 245.453 125.974 245.767 125.974 245.767C125.974 245.767 125.345 247.633 126.1 248.577C126.875 249.541 128.301 249.961 128.301 249.961L127.945 253.421L126.121 253.798L125.701 258.746L127.924 259.669L136.646 260.34L137.108 255.119C137.108 255.119 136.311 254.574 136.164 254.301C136.017 254.029 136.017 253.484 136.059 253.001C136.458 252.917 137.191 252.75 137.883 252.666C138.366 252.603 138.617 252.708 138.806 253.19C139.204 254.721 139.414 258.285 139.729 261.011C140.106 264.387 140.882 267.553 141.762 270.635C141.804 270.803 143.293 274.829 145.516 276.737C144.908 277.534 144.048 278.75 143.398 279.882C140.127 285.607 141.741 290.534 143.146 293.554C143.608 294.644 144.132 295.734 144.698 296.825C143.649 300.85 141.825 308.881 141.238 311.775C140.022 317.877 140.379 324.377 141.049 329.367C141.217 331.254 141.511 333.183 141.993 334.924C142.287 336.328 142.538 337.293 142.622 337.649C142.685 339.432 143.335 357.716 145.851 369.479C150.443 390.992 159.69 409.444 169.482 428.987C181.203 452.366 193.322 476.542 198.752 508.519C202.82 532.548 194.454 567.208 194.37 567.544L194.014 569.012L196.488 569.033C196.404 569.054 196.32 569.054 196.236 569.074C196.236 569.074 238.36 569.305 277.654 569.515L340.305 569.892C340.368 569.892 340.41 569.871 340.473 569.85C342.213 569.85 343.408 569.871 343.912 569.871C343.912 569.871 331.666 539.006 335.65 529.487C337.223 525.712 352.278 525.88 349.384 520.554C346.197 514.683 317.367 479.205 306.421 458.279C306.107 457.692 279.457 404.118 259.391 380.592C252.241 372.226 234.775 346.561 229.344 335.93C226.849 332.051 228.967 331.359 230.623 330.751C232.175 330.185 239.975 326.075 240.646 324.272C241.338 322.469 239.22 318.799 239.01 316.912C238.549 312.593 243.854 310.894 246.706 313.41C250.668 316.891 256.309 322.573 264.36 324.943C271.322 326.998 288.62 329.074 300.068 326.369C305.499 325.09 310.929 321.735 312.146 320.644C314.913 318.17 315.5 315.717 313.613 313.536C313.152 313.012 306.547 316.786 303.759 314.522C299.167 310.81 303.528 307.162 303.926 306.889C307.009 304.96 311.328 305.107 316.759 302.444C322.567 299.571 325.187 296.154 325.942 295.042C328.27 291.604 328.207 290.513 328.878 289.989C329.884 289.171 333.092 290.681 333.805 288.312C334.225 286.907 334.078 284.663 332.379 282.566C330.933 280.784 329.57 280.826 328.878 278.813C327.662 275.353 331.394 271.831 332.841 270.153C334.141 268.664 334.371 267.05 333.805 266.106C333.805 266.043 333.491 264.303 323.279 260.067C317.996 257.866 307.679 253.316 296.189 250.506C285.622 247.927 274.089 246.962 266.415 247.088C254.149 247.277 246.915 249.667 246.915 249.667L243.833 243.125C243.833 243.125 255.68 231.111 257.735 227.881C259.789 224.631 260.251 223.562 260.251 223.562C260.251 223.562 268.302 217.439 271.552 215.741C274.802 214.063 284.175 209.01 288.263 204.565C292.352 200.12 300.152 191.586 303.046 188.713C305.918 185.84 309.168 183.073 310.259 182.339C311.349 181.626 313.194 179.466 314.284 178.816C316.968 177.243 321.979 176.782 325.691 174.727C329.423 172.693 333.239 171.792 334.518 171.477C337.705 170.638 346.155 168.185 350.265 166.78C353.997 165.501 355.57 166.005 355.674 164.516C355.926 161.433 347.015 164.306 345.778 164.558ZM281.763 459.998C286.397 467.149 292.121 476.962 298.16 487.865C300.299 491.744 305.918 501.327 309.063 507.512C310.3 509.965 315.857 510.049 316.57 509.965C327.117 508.519 330.618 508.141 338.733 512.209C338.754 512.23 334.728 511.643 332.442 511.832C326.907 512.251 325.67 511.874 317.45 515.501C316.276 516.025 314.012 517.032 311.705 518.08C308.225 519.653 304.115 518.52 302.962 514.222C301.305 507.952 298.37 498.349 294.051 489.06C287.215 474.424 287.991 475.305 284.992 468.428C284.489 467.274 281.072 458.95 281.763 459.998ZM265.597 482.749C268.973 488.976 270.609 490.822 276.27 503.381C279.331 510.196 283.336 516.801 286.397 520.743C287.362 521.98 288.201 522.945 288.83 523.72L291.828 526.824L284.804 528.711C284.573 528.795 284.322 528.858 284.07 528.942C278.975 530.619 279.142 533.764 279.247 536.7C279.373 539.53 280.212 543.493 272.894 555.382C275.536 509.714 265.136 489.144 259.496 473.041C259.517 473.062 263.312 478.555 265.597 482.749ZM118.132 230.586C118.069 229.706 117.922 226.938 117.88 225.91C118.446 225.659 133.187 221.549 133.187 221.549L160.885 70.9771L163.716 67.2867L162.499 70.3061L135.367 224.841L142.077 221.297L155.916 225.785L154.112 231.194L134.088 229.831L118.132 230.586ZM125.051 239.98C124.506 237.82 127.106 237.191 127.777 237.128C128.238 237.086 128.888 237.149 129.287 237.695C129.454 237.925 129.58 238.407 129.329 238.869C129.035 239.372 128.49 239.225 127.903 239.435C126.791 239.833 126.037 240.546 125.659 240.945C125.387 240.672 125.093 240.169 125.051 239.98ZM125.827 244.027C125.156 241.762 127.861 240.861 128.406 240.84C128.846 240.798 129.538 240.63 129.895 241.301C130.041 241.595 130.356 242.769 128.972 243.419C127.651 244.048 127.232 244.153 126.771 244.719C126.666 244.845 126.477 245.138 126.477 245.222C126.225 245.033 126.037 244.782 125.827 244.027ZM127.085 248.514C126.875 248.262 126.54 247.801 126.498 247.298C126.372 245.83 127.022 245.432 127.022 245.432C127.022 245.432 127.882 244.509 129.832 244.593C131.132 244.656 131.3 245.243 131.3 245.767C131.3 246.522 130.566 247.256 129.601 247.424C128.7 247.57 127.127 248.053 127.085 248.514ZM134.466 258.726C134.361 258.935 127.127 258.076 127.127 258.076L127.358 254.616L128.972 254.301L129.329 249.982C129.853 249.772 130.629 249.479 131.006 249.374C133.312 248.745 134.57 249.919 134.57 249.919L134.298 253.966L134.78 254.28C134.78 254.301 134.612 258.411 134.466 258.726ZM230.372 377.426C230.393 377.468 230.414 377.489 230.414 377.531C230.833 378.37 231.273 379.187 231.735 380.005C238.864 392.46 244.336 404.37 248.53 415.567C243.518 407.159 237.375 399.484 229.973 393.571C204.267 373.065 193.825 365.873 185.124 353.879C180.091 346.938 178.078 340.501 178.078 340.501C177.764 346.142 179.525 353.292 184.306 362.14C191.603 375.581 205.001 382.941 218.19 399.254C230.435 414.414 231.043 416.196 237.71 427.812C240.101 431.964 241.61 438.192 244.273 438.192C245.783 438.192 244.944 424.73 246.077 424.982C246.727 425.128 247.167 426.072 247.418 426.596C248.823 429.49 249.473 432.824 250.144 435.948C251.151 440.645 251.926 445.405 252.639 450.143C253.373 455.155 254.002 460.187 254.505 465.219C254.568 465.828 254.631 466.436 254.673 467.044C254.715 467.526 254.631 468.365 254.841 468.805C248.802 455.784 242.344 443.811 238.968 438.171C232.343 427.12 219.133 411.814 216.764 408.962C207.852 398.31 193.301 387.679 183.865 378.705C177.093 372.268 186.151 385.247 190.47 389.86C196.551 396.381 210.557 409.486 222.551 427.938C225.948 433.159 225.759 435.088 220.936 429.616C212.549 420.075 190.24 404.328 196.488 411.206C196.488 411.206 200.409 414.435 203.596 418.23C231.714 451.653 233.265 490.381 233.265 503.277C233.391 524.308 230.099 553.055 215.527 562.407C207.811 567.355 197.033 566.579 197.033 566.579C198.585 559.639 204.77 529.717 201.101 508.057C195.628 475.724 183.425 451.381 171.62 427.854C161.891 408.459 152.708 390.133 148.178 368.934C146.543 361.218 145.704 350.65 145.306 343.919C145.222 338.383 145.138 331.317 146.983 325.467C147.529 323.727 149.038 320.078 150.737 317.08C152.456 314.081 154.574 312.173 155.769 310.978C157.048 309.699 162.709 305.233 172.732 304.331C183.027 303.409 188.919 306.889 192.001 307.98C194.999 309.028 207.349 315.444 218.001 335.825C220.538 340.669 221.733 347.966 223.473 356.018C204.582 335.196 187.87 322.133 187.241 323.119C186.528 324.209 206.594 345.072 208.146 347.022C209.069 348.217 221.67 361.134 230.372 377.426ZM188.814 292.526C193.322 294.057 194.182 296.091 194.182 296.091C194.182 296.091 173.004 293.176 167.133 296.594C167.133 296.594 175.332 298.271 181.915 302.675C181.433 302.591 177.512 301.27 170.824 302.171C164.387 303.052 160.109 305.212 157.635 306.805C155.727 308.022 157.341 301.438 176.045 281.979C184.201 273.487 190.051 273.697 190.051 273.697C190.051 273.697 186.004 280.197 185.019 284.558C184.138 288.333 184.893 291.184 188.814 292.526ZM210.348 299.676C210.18 297.873 210.075 295.399 209.949 294.476C209.572 291.142 212.361 285.208 213.199 284.537C213.681 285.565 214.541 295.483 214.499 296.95C213.975 313.851 221.251 325.488 221.251 325.488C213.493 314.92 208.461 311.859 208.293 311.418C208.754 310.643 210.096 308.063 210.327 305.841C210.62 303.43 210.536 301.479 210.348 299.676ZM286.272 251.135C285.391 250.506 284.091 249.961 282.581 249.521C289.542 250.338 295.896 251.512 301.096 252.854C306.149 254.154 316.8 258.222 327.368 263.297C328.039 263.611 329.696 264.513 330.849 265.121C328.312 265.414 325.292 267.197 325.292 267.197C325.292 267.197 308.539 258.138 293.904 256.566C281.805 255.245 266.226 256.293 266.226 256.293C266.226 256.293 273.46 253.043 286.272 251.135ZM244.672 267.637C248.593 267.385 252.828 267.113 255.638 267.05C266.457 266.819 269.036 269.377 269.036 269.377C269.036 269.377 245.867 268.727 234.754 276.465C233.454 277.366 239.849 276.087 244.714 275.311C256.015 273.487 269.539 276.066 280.212 280.197C291.681 284.642 298.894 280.742 314.871 281.811C329.066 282.755 328.542 289.087 328.542 289.087C328.542 289.087 322.504 284.6 313.634 289.884C308.246 293.113 302.5 298.041 302.5 298.041C302.5 298.041 300.11 296.007 284.175 293.071C274.047 291.205 230.854 287.599 201.877 261.724C201.269 261.179 200.723 260.676 200.22 260.214C192.903 262.961 184.977 270.153 177.995 276.171C171.746 281.56 166.42 288.626 160.109 294.308C160.109 294.308 150.401 302.738 147.529 308.001C146.858 309.217 144.299 314.333 142.769 320.456C142.769 317.751 142.979 314.962 143.524 312.278C144.111 309.343 144.698 306.763 145.222 304.52C145.851 301.752 146.627 298.754 147.319 296.237C148.996 292.904 153.232 284.39 152.498 284.286C151.009 284.097 148.598 283.95 146.396 284.537C145.411 284.81 144.593 285.124 143.922 285.439C144.111 284.076 144.53 282.629 145.411 281.078C146.396 279.358 148.891 275.961 148.891 275.961C148.891 275.961 145.201 273.76 143.943 269.587C142.811 265.834 142.287 260.99 141.888 257.446C141.553 254.469 141.385 253.022 141.029 252.288C140.42 251.072 139.603 250.003 137.779 250.275C137.611 250.296 137.401 250.338 137.212 250.359C137.401 250.108 137.569 249.856 137.569 249.667C137.611 248.22 135.933 247.256 135.766 246.543C135.577 245.683 135.64 243.964 135.87 243.02C136.646 239.875 133.124 240.714 131.593 238.03C130.146 235.472 130.461 232.977 127.861 234.403C126.875 234.927 125.114 235.891 124.38 236.415C123.667 234.486 124.422 233.815 125.932 232.641C126.246 232.432 126.624 232.201 126.854 232.075C128.909 230.922 131.971 230.544 133.229 230.796C135.22 231.215 136.458 233.732 136.416 235.073C136.374 236.415 136.458 238.093 137.108 239.54C137.737 240.986 137.8 242.475 137.967 243.272C138.135 244.069 138.827 244.383 138.827 244.383C140.693 241.741 141.993 240.462 144.258 239.98C145.516 240.064 146.543 239.791 149.164 243.566C149.667 244.299 152.204 247.801 154.008 250.8C155.811 253.777 158.285 259.942 158.285 259.942L169.314 254.721C169.314 254.721 168.056 244.467 168.014 242.077C167.909 235.807 167.154 232.914 167.154 232.914C167.154 232.914 165.77 233.27 165.057 232.83C164.764 232.641 164.03 232.39 163.716 230.838C162.919 227.064 164.743 225.26 164.743 225.26C163.653 224.317 163.087 222.283 163.464 219.683C163.737 217.838 162.437 219.117 161.661 220.731C161.388 220.354 161.409 219.704 161.724 218.886C163.128 215.384 165.162 212.323 166.357 208.717C166.357 208.717 165.624 208.884 164.932 209.178C164.261 209.471 163.38 210.373 162.541 211.589C161.975 212.428 160.612 213.413 159.857 214.504C159.837 214.399 159.837 211.904 162.457 209.283C163.716 208.025 166.399 207.27 166.399 207.27C166.399 207.27 166.525 205.97 167.574 205.487C168.349 205.131 169.461 204.837 169.461 204.837C169.461 204.837 169.545 203.181 170.509 202.447C171.474 201.713 172.019 201.566 172.795 201.399C174.87 199.155 177.219 195.926 180.49 195.632C182.943 195.402 185.417 195.087 186.549 194.878C186.843 194.815 189.128 194.5 189.422 195.129C187.451 195.108 185.019 195.234 182.733 196.031C180.846 196.702 180.783 197.415 180.259 197.939C179.735 198.463 178.624 199.05 178.099 199.26C177.575 199.47 176.988 199.784 176.715 200.245C176.464 200.707 176.59 200.958 175.919 201.294C175.269 201.629 174.409 203.16 174.409 203.16C174.409 203.16 177.806 202.195 179.651 202.258C182.146 202.321 183.656 203.705 183.572 205.739C183.53 206.85 182.188 208.612 179.064 208.213C179.064 208.213 178.665 209.576 178.98 210.499C179.274 211.338 179.861 213.434 180.154 214.546C180.196 214.755 180.259 214.965 180.322 215.175C180.343 215.259 180.364 215.301 180.364 215.301V215.322C180.469 215.657 180.574 215.993 180.678 216.265C180.888 216.915 179.42 215.238 178.141 216.559L176.862 217.523C176.233 218.089 175.122 218.949 175.332 219.389C175.541 219.83 175.814 220.039 176.422 220.123C176.988 220.207 180.07 220.186 180.993 220.102C181.224 220.123 181.433 220.123 181.643 220.144C181.643 220.144 181.643 220.144 181.643 220.165C181.622 220.165 181.748 220.71 181.894 221.465C180.783 220.836 178.707 220.815 178.645 220.857C178.057 220.836 177.533 221.046 176.967 221.339C176.024 221.822 174.954 223.331 174.619 224.841C173.99 227.693 174.598 228.636 177.848 228.469L177.869 228.49C179.378 228.573 180.133 228.49 181.307 228.49C181.412 228.49 181.496 228.469 181.622 228.469C180.888 229.517 179.986 230.041 179.986 230.041C179.986 230.041 179.253 230.062 178.959 230.083C176.925 230.209 176.065 229.873 175.94 230.272C174.891 233.438 178.225 230.565 178.833 231.907C179.085 232.494 178.686 233.815 178.183 234.612C177.764 235.283 175.206 234.444 174.493 234.885C172.941 235.849 173.738 236.29 176.212 237.695C177.974 238.701 182.838 240.609 183.886 241.343C184.935 242.077 190.261 244.824 190.785 244.698C192.462 244.258 197.033 239.812 197.159 239.686C200.136 236.688 208.125 231.782 210.557 230.586C212.549 229.622 218.399 226.581 223.138 223.96C222.173 225.722 221.167 228.762 220.748 234.004C220.391 238.764 220.14 242.874 218.693 241.238C215.107 237.128 215.317 232.39 214.625 233.585C212.822 236.772 212.591 238.47 213.052 241.007C213.87 245.641 217.267 247.067 215.694 247.088C209.907 247.151 208.083 245.872 204.791 242.433C202.694 240.232 198.857 241.259 198.857 241.259C198.857 241.259 202.107 244.153 206.406 247.822C211.899 252.519 221.356 253.756 227.625 254.804C238.172 256.566 241.296 260.34 241.296 260.34C241.296 260.34 214.331 258.537 212.067 256.692L214.038 259.271C203.009 258.956 192.965 245.851 192.965 245.851C192.965 245.851 194.203 250.59 196.215 253.169C199.067 256.817 202.715 259.25 207.14 261.808C216.177 267.071 234.67 268.287 244.672 267.637ZM323.95 166.487C321.728 166.801 320.554 167.263 319.317 167.913C315.899 169.674 313.257 171.309 312.418 171.435C308.057 172.064 308.099 173.763 304.597 176.971C303.15 178.292 282.497 194.27 275.872 198.61C269.267 202.929 257.001 212.91 255.68 213.749C252.87 215.531 250.375 220.564 246.454 224.841C240.478 231.383 233.244 237.506 232.615 238.156C231.336 239.477 226.346 239.456 225.36 232.998C224.669 228.469 224.92 224.694 225.151 222.828C225.948 222.367 226.702 221.926 227.331 221.549C231.965 218.739 234.964 216.81 239.577 213.77C242.889 211.589 246.936 208.297 251.612 204.46C253.625 202.825 255.701 201.105 257.86 199.386C264.78 193.871 273.46 189.279 273.607 189.195C275.557 188 278.262 186.344 281.323 184.456C285.391 181.94 290.109 179.026 294.533 176.363C301.284 172.295 306.547 167.808 306.778 167.619L307.092 167.2C307.826 165.543 309.084 163.614 309.629 163.048C310.888 161.748 313.844 160.28 315.521 159.567L316.444 159.169C318.373 158.351 320.763 157.345 321.875 156.38C323.007 155.374 326.634 152.312 327.431 151.662C328.458 150.824 330.031 149.901 330.492 150.09C330.513 150.111 331.163 150.425 330.387 151.18C330.346 151.201 326.949 154.137 325.817 154.954C325.271 155.353 324.789 155.814 324.37 156.275C323.929 156.674 323.51 157.072 323.217 157.429C321.267 159.882 320.008 160.427 320.218 160.574C321.958 161.769 324.265 163.027 324.265 163.027C325.963 164.117 327.85 163.908 329.171 163.467C327.641 165.124 325.313 166.298 323.95 166.487ZM334.225 163.656C334.812 163.006 334.979 162.524 335.587 161.811C335.587 161.811 339.278 160.595 341.165 159.987C345.987 158.435 346.365 158.435 346.554 158.938C346.784 159.504 345.568 160.008 344.918 160.259C343.325 160.867 335.252 163.321 334.225 163.656ZM188.353 251.177C183.027 262.814 173.738 256.838 165.351 263.863C159.92 268.413 159.124 274.2 159.124 274.2C159.124 274.2 161.451 273.613 163.506 273.152C162.52 274.032 155.077 288.542 154.867 288.92C154.658 289.276 165.267 277.471 184.998 264.639C192.085 260.026 197.578 258.034 197.578 258.034C193.469 253.924 191.77 247.277 191.77 247.277C191.77 247.277 189.527 248.619 188.353 251.177ZM171.495 214.273C171.39 215.678 172.019 215.447 173.382 215.657C173.277 215.804 173.172 215.93 173.046 216.055C172.522 216.076 171.998 216.013 171.495 216.139C171.033 216.244 170.509 216.349 170.09 216.936C171.348 216.747 172.186 217.02 172.145 217.943C175.122 215.972 176.569 214.399 175.814 211.086C176.715 209.828 177.261 208.905 177.365 207.333C176.443 208.255 176.149 208.863 174.807 208.738C169.188 207.5 167.406 211.254 167.406 211.254C169.67 210.415 171.578 209.388 173.528 210.855C172.228 210.981 169.628 211.4 168.245 213.036C166.399 215.217 167.091 217.943 167.175 219.704C167.196 220.018 168.14 218.467 169.125 218.215C168.936 217.565 168.957 217.314 169.209 216.58C169.566 215.384 170.551 214.525 171.495 214.273ZM169.041 215.762C168.936 216.139 168.853 216.349 168.853 216.349C168.853 216.349 168.643 214.734 169.482 213.812C170.299 212.91 171.83 212.365 172.312 212.281C172.795 212.197 172.878 212.344 172.878 212.344C172.836 212.512 172.774 212.659 172.732 212.826C172.732 212.826 170.991 213.476 170.299 214.189C169.566 214.902 169.146 215.384 169.041 215.762Z" fill="white"/>
</g>
<mask id="mask5_16_3" style="mask-type:luminance" maskUnits="userSpaceOnUse" x="0" y="0" width="413" height="739">
<path d="M413 0H0V739H413V0Z" fill="white"/>
</mask>
<g mask="url(#mask5_16_3)">
<path d="M63.1755 662.362H77.8319V610.843H86.3658V662.362H101.022V598.493H63.1755V662.362Z" fill="white"/>
</g>
<mask id="mask6_16_3" style="mask-type:luminance" maskUnits="userSpaceOnUse" x="0" y="0" width="413" height="739">
<path d="M413 0H0V739H413V0Z" fill="white"/>
</mask>
<g mask="url(#mask6_16_3)">
<path d="M139.54 602.015C137.862 600.506 135.85 599.373 133.543 598.598C131.237 597.822 128.721 597.444 125.995 597.444C123.269 597.444 120.753 597.822 118.446 598.598C116.14 599.373 114.127 600.506 112.45 602.015C110.751 603.525 109.451 605.454 108.487 607.782C107.543 610.13 107.061 612.835 107.061 615.917V644.958C107.061 650.703 108.759 655.211 112.114 658.503C115.49 661.795 120.103 663.431 125.974 663.431C131.887 663.431 136.52 661.795 139.875 658.503C143.23 655.211 144.887 650.703 144.887 644.958V615.917C144.887 612.835 144.404 610.13 143.461 607.782C142.559 605.433 141.238 603.525 139.54 602.015ZM130.272 646.195C130.272 646.615 130.251 647.16 130.188 647.831C130.125 648.502 129.958 649.173 129.706 649.781C129.433 650.41 129.014 650.934 128.469 651.374C127.903 651.815 127.085 652.045 126.016 652.045C124.946 652.045 124.129 651.815 123.521 651.374C122.933 650.934 122.493 650.389 122.241 649.781C121.969 649.152 121.822 648.502 121.801 647.831C121.78 647.16 121.759 646.594 121.759 646.195V614.659C121.759 614.114 121.78 613.527 121.801 612.835C121.822 612.164 121.969 611.514 122.241 610.927C122.514 610.34 122.933 609.837 123.521 609.417C124.108 608.998 124.946 608.788 126.016 608.788C127.085 608.788 127.903 608.998 128.469 609.417C129.035 609.837 129.454 610.34 129.706 610.927C129.979 611.514 130.125 612.164 130.188 612.835C130.251 613.527 130.272 614.114 130.272 614.659V646.195Z" fill="white"/>
</g>
<mask id="mask7_16_3" style="mask-type:luminance" maskUnits="userSpaceOnUse" x="0" y="0" width="413" height="739">
<path d="M413 0H0V739H413V0Z" fill="white"/>
</mask>
<g mask="url(#mask7_16_3)">
<path d="M168.391 623.717H165.645V610.843H185.27V598.493H150.988V662.341H171.851C175.101 662.341 177.827 661.816 180.028 660.747C182.209 659.678 183.97 658.252 185.27 656.49C186.57 654.708 187.493 652.632 188.017 650.221C188.541 647.831 188.814 645.294 188.814 642.631C188.814 636.655 187.032 632 183.488 628.687C179.944 625.374 174.912 623.717 168.391 623.717ZM173.99 646.866C173.864 647.956 173.633 648.858 173.277 649.529C172.92 650.221 172.396 650.724 171.683 651.039C170.97 651.353 169.985 651.521 168.748 651.521H165.645V634.118H169.02C170.153 634.118 171.054 634.369 171.725 634.872C172.396 635.376 172.92 636.026 173.277 636.822C173.633 637.619 173.864 638.542 173.99 639.569C174.115 640.597 174.157 641.687 174.157 642.819C174.178 644.413 174.115 645.755 173.99 646.866Z" fill="white"/>
</g>
<mask id="mask8_16_3" style="mask-type:luminance" maskUnits="userSpaceOnUse" x="0" y="0" width="413" height="739">
<path d="M413 0H0V739H413V0Z" fill="white"/>
</mask>
<g mask="url(#mask8_16_3)">
<path d="M209.404 635.795H225.214V623.466H209.404V610.843H227.415V598.493H194.748V662.362H228.128V650.011H209.404V635.795Z" fill="white"/>
</g>
<mask id="mask9_16_3" style="mask-type:luminance" maskUnits="userSpaceOnUse" x="0" y="0" width="413" height="739">
<path d="M413 0H0V739H413V0Z" fill="white"/>
</mask>
<g mask="url(#mask9_16_3)">
<path d="M276.48 598.493H241.212C241.086 602.749 241.002 607.32 240.939 612.164C240.877 617.029 240.73 621.809 240.457 626.506C240.185 631.203 239.744 635.627 239.136 639.737C238.507 643.847 237.627 647.264 236.431 649.99H232.804V674.062H245.154V662.341H268.302V674.062H280.589V650.011H276.501V598.493H276.48ZM261.823 650.011H250.71C251.423 647.873 251.989 645.21 252.451 642.022C252.891 638.835 253.268 635.397 253.562 631.727C253.855 628.058 254.086 624.283 254.275 620.404C254.443 616.525 254.589 612.835 254.715 609.354H261.823V650.011Z" fill="white"/>
</g>
<mask id="mask10_16_3" style="mask-type:luminance" maskUnits="userSpaceOnUse" x="0" y="0" width="413" height="739">
<path d="M413 0H0V739H413V0Z" fill="white"/>
</mask>
<g mask="url(#mask10_16_3)">
<path d="M295.854 598.493L284.049 662.341H298.789L300.299 650.976H310.594L311.936 662.341H327.389L315.395 598.493H295.854ZM301.808 639.611L305.541 608.432H305.729L309.189 639.611H301.808Z" fill="white"/>
</g>
<mask id="mask11_16_3" style="mask-type:luminance" maskUnits="userSpaceOnUse" x="0" y="0" width="413" height="739">
<path d="M413 0H0V739H413V0Z" fill="white"/>
</mask>
<g mask="url(#mask11_16_3)">
<path d="M333.616 598.493V623.445L336.636 643.889H343.828L346.847 623.445V598.493H333.616Z" fill="white"/>
</g>
<mask id="mask12_16_3" style="mask-type:luminance" maskUnits="userSpaceOnUse" x="0" y="0" width="413" height="739">
<path d="M413 0H0V739H413V0Z" fill="white"/>
</mask>
<g mask="url(#mask12_16_3)">
<path d="M346.847 647.621H333.616V662.362H346.847V647.621Z" fill="white"/>
</g>
<mask id="mask13_16_3" style="mask-type:luminance" maskUnits="userSpaceOnUse" x="0" y="0" width="413" height="739">
<path d="M413 0H0V739H413V0Z" fill="white"/>
</mask>
<g mask="url(#mask13_16_3)">
<path d="M63.0078 526.761C63.0078 524.475 63.0917 522.064 63.2804 519.485C63.4691 516.906 63.9933 514.369 64.8949 511.852C65.7965 509.336 67.2223 507.009 69.2142 504.849C71.1852 502.689 73.9739 500.886 77.5803 499.46C74.9384 498.37 72.7578 497.07 71.0175 495.497C69.2771 493.946 67.8723 492.226 66.803 490.381C65.7336 488.536 64.9788 486.67 64.5594 484.804C64.1401 482.937 63.9304 481.239 63.9304 479.687V470.881C63.9304 468.616 64.1191 465.639 64.4756 461.99C64.832 458.342 66.0901 454.777 68.2497 451.297C70.4094 447.816 73.8481 444.817 78.5868 442.301C83.3255 439.785 89.9932 438.527 98.6319 438.527C107.271 438.527 113.938 439.785 118.677 442.301C123.416 444.817 126.854 447.816 129.014 451.297C131.174 454.777 132.432 458.342 132.788 461.99C133.145 465.639 133.333 468.616 133.333 470.881V479.687C133.333 481.239 133.082 482.958 132.62 484.804C132.138 486.67 131.362 488.494 130.293 490.276C129.224 492.08 127.735 493.778 125.89 495.392C124.024 497.007 121.78 498.349 119.138 499.439C122.724 500.76 125.512 502.291 127.504 504.01C129.475 505.751 130.985 507.785 131.991 510.133C133.019 512.461 133.648 515.019 133.879 517.765C134.109 520.512 134.235 523.511 134.235 526.761V537.538C134.235 547.477 131.216 555.361 125.156 561.169C119.096 566.978 110.269 569.892 98.6319 569.892C86.9948 569.892 78.1674 566.978 72.1078 561.169C66.0481 555.361 63.0288 547.477 63.0288 537.538V526.761H63.0078ZM91.7754 480.547C91.7754 484.028 92.4254 486.271 93.7464 487.278C95.0674 488.305 96.6819 488.808 98.6109 488.808C100.414 488.808 101.987 488.305 103.371 487.278C104.754 486.271 105.446 484.007 105.446 480.547V468.679C105.446 465.198 104.754 462.955 103.371 461.948C101.987 460.921 100.393 460.418 98.6109 460.418C96.7028 460.418 95.0674 460.921 93.7464 461.948C92.4254 462.976 91.7754 465.219 91.7754 468.679V480.547ZM91.7754 539.656C91.7754 543.158 92.4254 545.401 93.7464 546.429C95.0674 547.456 96.6819 547.96 98.6109 547.96C100.414 547.96 101.987 547.456 103.371 546.429C104.754 545.401 105.446 543.158 105.446 539.656V519.065C105.446 515.585 104.754 513.32 103.371 512.293C101.987 511.265 100.393 510.762 98.6109 510.762C96.7028 510.762 95.0674 511.286 93.7464 512.293C92.4254 513.32 91.7754 515.564 91.7754 519.065V539.656Z" fill="white"/>
</g>
<mask id="mask14_16_3" style="mask-type:luminance" maskUnits="userSpaceOnUse" x="0" y="0" width="413" height="739">
<path d="M413 0H0V739H413V0Z" fill="white"/>
</mask>
<g mask="url(#mask14_16_3)">
<path d="M143.524 470.839C143.524 460.9 146.543 453.016 152.603 447.208C158.641 441.4 167.49 438.485 179.106 438.485C190.722 438.485 199.57 441.4 205.63 447.208C211.669 453.016 214.709 460.9 214.709 470.839V537.538C214.709 547.477 211.69 555.361 205.63 561.17C199.57 566.978 190.743 569.892 179.106 569.892C167.469 569.892 158.641 566.999 152.603 561.17C146.543 555.361 143.524 547.477 143.524 537.538V470.839ZM172.291 539.677C172.291 543.158 172.941 545.422 174.262 546.429C175.583 547.456 177.198 547.96 179.127 547.96C180.93 547.96 182.503 547.456 183.886 546.429C185.27 545.402 185.962 543.158 185.962 539.677V468.7C185.962 465.219 185.27 462.976 183.886 461.948C182.503 460.921 180.909 460.418 179.127 460.418C177.219 460.418 175.583 460.921 174.262 461.948C172.941 462.976 172.291 465.219 172.291 468.7V539.677Z" fill="white"/>
</g>
</g>
<defs>
<clipPath id="clip0_16_3">
<rect width="413" height="739" fill="white"/>
</clipPath>
</defs>
</svg>
